<svg xmlns="http://www.w3.org/2000/svg" xmlns:xlink="http://www.w3.org/1999/xlink" width="512" zoomAndPan="magnify" viewBox="0 0 384 383.999986" height="512" preserveAspectRatio="xMidYMid meet" version="1.0"><defs><g/><clipPath id="d781e2eacc"><path d="M 146.609375 100.429688 L 237.359375 100.429688 L 237.359375 132 L 146.609375 132 Z M 146.609375 100.429688 " clip-rule="nonzero"/></clipPath><clipPath id="8a8ad8f79a"><path d="M 146.609375 143 L 237.359375 143 L 237.359375 194.179688 L 146.609375 194.179688 Z M 146.609375 143 " clip-rule="nonzero"/></clipPath></defs><g clip-path="url(#d781e2eacc)"><path fill="#34d399" d="M 159.878906 108.171875 L 181.5 108.171875 C 187.714844 108.171875 187.035156 104.886719 187.035156 100.441406 L 196.957031 100.441406 C 196.957031 104.917969 196.289062 108.171875 202.496094 108.171875 L 224.011719 108.171875 C 233.726562 108.171875 237.382812 112.765625 237.382812 124.464844 L 237.382812 131.085938 L 227.484375 131.085938 C 227.4375 127.757812 227.394531 124.476562 227.347656 124.277344 C 226.488281 120.445312 224.273438 119.035156 220.355469 119.035156 L 203.226562 119.035156 C 196.542969 119.035156 193.304688 117.050781 192.050781 111.722656 C 190.691406 117.050781 187.453125 119.035156 180.769531 119.035156 L 163.636719 119.035156 C 158.414062 119.035156 156.222656 121.539062 156.222656 128.957031 C 156.222656 128.957031 156.226562 130.394531 156.230469 131.085938 L 146.613281 131.085938 L 146.613281 124.464844 C 146.613281 112.765625 150.269531 108.171875 159.878906 108.171875 " fill-opacity="1" fill-rule="nonzero"/></g><g clip-path="url(#8a8ad8f79a)"><path fill="#34d399" d="M 156.644531 170.535156 C 157.507812 174.367188 159.722656 175.777344 163.636719 175.777344 L 180.769531 175.777344 C 187.453125 175.777344 190.691406 177.761719 191.945312 183.089844 C 193.300781 177.761719 196.539062 175.777344 203.226562 175.777344 L 220.355469 175.777344 C 225.578125 175.777344 227.773438 173.269531 227.773438 165.855469 C 227.773438 165.855469 227.707031 154.9375 227.613281 143.835938 L 237.382812 143.835938 L 237.382812 170.347656 C 237.382812 182.046875 233.726562 186.640625 224.117188 186.640625 L 202.496094 186.640625 C 196.28125 186.640625 196.957031 189.925781 196.957031 194.371094 L 187.035156 194.371094 C 187.035156 189.894531 187.707031 186.640625 181.5 186.640625 L 159.980469 186.640625 C 150.269531 186.640625 146.613281 182.046875 146.613281 170.347656 L 146.613281 143.835938 L 156.335938 143.835938 C 156.4375 155.828125 156.582031 170.253906 156.644531 170.535156 " fill-opacity="1" fill-rule="nonzero"/></g><path fill="#059669" d="M 218.394531 151.242188 L 218.394531 157.210938 C 218.394531 157.210938 205.175781 163.726562 191.996094 163.726562 C 178.820312 163.726562 165.597656 157.210938 165.597656 157.210938 L 165.597656 151.242188 C 173.625 153.914062 182.589844 155.425781 191.996094 155.429688 C 201.402344 155.425781 210.367188 153.914062 218.394531 151.242188 " fill-opacity="1" fill-rule="nonzero"/><path fill="#059669" d="M 204.503906 131.085938 C 208.023438 131.085938 210.878906 133.941406 210.878906 137.460938 C 210.878906 140.984375 208.023438 143.835938 204.503906 143.835938 C 200.980469 143.835938 198.125 140.984375 198.125 137.460938 C 198.125 133.941406 200.980469 131.085938 204.503906 131.085938 " fill-opacity="1" fill-rule="nonzero"/><path fill="#059669" d="M 173.097656 133.972656 L 175.984375 131.085938 L 179.472656 134.574219 L 182.960938 131.085938 L 185.847656 133.972656 L 182.359375 137.460938 L 185.847656 140.949219 L 182.960938 143.835938 L 179.472656 140.347656 L 175.984375 143.835938 L 173.097656 140.949219 L 176.585938 137.460938 L 173.097656 133.972656 " fill-opacity="1" fill-rule="nonzero"/><path fill="#34d399" d="M 330.554688 10.492188 C 354.277344 10.492188 373.507812 29.722656 373.507812 53.445312 L 373.507812 107.246094 C 373.507812 108.632812 374.0625 109.96875 375.042969 110.953125 C 378.339844 114.246094 383.980469 111.914062 383.980469 107.246094 L 383.980469 53.808594 C 383.980469 38.066406 377.25 22.992188 365.285156 12.753906 C 355.652344 4.515625 343.539062 0.0195312 330.726562 0.0195312 L 276.761719 0.0195312 C 272.09375 0.0195312 269.765625 5.660156 273.058594 8.957031 C 274.042969 9.9375 275.367188 10.492188 276.761719 10.492188 L 330.5625 10.492188 Z M 330.554688 10.492188 " fill-opacity="1" fill-rule="nonzero"/><path fill="#34d399" d="M 10.492188 53.445312 C 10.492188 29.722656 29.722656 10.492188 53.445312 10.492188 L 107.246094 10.492188 C 108.632812 10.492188 109.96875 9.9375 110.953125 8.957031 C 114.246094 5.660156 111.914062 0.0195312 107.246094 0.0195312 L 53.808594 0.0195312 C 38.066406 0.0195312 22.992188 6.75 12.753906 18.714844 C 4.515625 28.347656 0.0195312 40.460938 0.0195312 53.273438 L 0.0195312 107.238281 C 0.0195312 111.90625 5.660156 114.234375 8.957031 110.941406 C 9.9375 109.957031 10.492188 108.632812 10.492188 107.238281 L 10.492188 53.4375 Z M 10.492188 53.445312 " fill-opacity="1" fill-rule="nonzero"/><path fill="#34d399" d="M 373.507812 276.753906 L 373.507812 330.554688 C 373.507812 354.277344 354.277344 373.507812 330.554688 373.507812 L 276.753906 373.507812 C 275.367188 373.507812 274.03125 374.0625 273.046875 375.042969 C 269.753906 378.339844 272.085938 383.980469 276.753906 383.980469 L 330.714844 383.980469 C 344.941406 383.980469 358.316406 378.441406 368.371094 368.378906 C 378.433594 358.316406 383.972656 344.949219 383.972656 330.726562 L 383.972656 276.761719 C 383.972656 272.09375 378.328125 269.765625 375.035156 273.058594 C 374.050781 274.042969 373.496094 275.367188 373.496094 276.761719 Z M 373.507812 276.753906 " fill-opacity="1" fill-rule="nonzero"/><path fill="#34d399" d="M 53.445312 373.507812 C 29.722656 373.507812 10.492188 354.277344 10.492188 330.554688 L 10.492188 276.753906 C 10.492188 275.367188 9.9375 274.03125 8.957031 273.046875 C 5.660156 269.753906 0.0195312 272.085938 0.0195312 276.753906 L 0.0195312 330.714844 C 0.0195312 344.941406 5.554688 358.316406 15.621094 368.371094 C 25.683594 378.433594 39.050781 383.972656 53.273438 383.972656 L 107.238281 383.972656 C 111.90625 383.972656 114.234375 378.328125 110.941406 375.035156 C 109.957031 374.050781 108.632812 373.496094 107.238281 373.496094 L 53.4375 373.496094 Z M 53.445312 373.507812 " fill-opacity="1" fill-rule="nonzero"/><g fill="#022c22" fill-opacity="1"><g transform="translate(70.06632, 250.759193)"><g><path d="M 4.734375 0 L 4.734375 -38.546875 L 12.453125 -38.546875 L 12.453125 -23.390625 L 27.03125 -23.390625 L 27.03125 -38.546875 L 34.6875 -38.546875 L 34.6875 0 L 27.03125 0 L 27.03125 -16.671875 L 12.453125 -16.671875 L 12.453125 0 Z M 4.734375 0 "/></g></g></g><g fill="#022c22" fill-opacity="1"><g transform="translate(108.4591, 250.759193)"><g><path d="M 14.28125 0.734375 C 11.21875 0.734375 8.632812 0.222656 6.53125 -0.796875 C 4.4375 -1.828125 2.710938 -3.109375 1.359375 -4.640625 L 4.953125 -9.484375 C 6.097656 -8.367188 7.378906 -7.425781 8.796875 -6.65625 C 10.222656 -5.894531 11.804688 -5.515625 13.546875 -5.515625 C 15.492188 -5.515625 17.070312 -5.984375 18.28125 -6.921875 C 19.5 -7.859375 20.109375 -9.179688 20.109375 -10.890625 C 20.109375 -12.171875 19.800781 -13.265625 19.1875 -14.171875 C 18.582031 -15.078125 17.515625 -15.78125 15.984375 -16.28125 C 14.460938 -16.78125 12.296875 -17.03125 9.484375 -17.03125 L 9.484375 -22.5625 C 11.835938 -22.5625 13.703125 -22.8125 15.078125 -23.3125 C 16.453125 -23.8125 17.425781 -24.503906 18 -25.390625 C 18.570312 -26.273438 18.859375 -27.289062 18.859375 -28.4375 C 18.859375 -29.96875 18.40625 -31.148438 17.5 -31.984375 C 16.601562 -32.816406 15.335938 -33.25 13.703125 -33.28125 C 12.304688 -33.25 11.023438 -32.925781 9.859375 -32.3125 C 8.703125 -31.707031 7.550781 -30.882812 6.40625 -29.84375 L 2.5 -34.53125 C 4.164062 -35.988281 5.941406 -37.144531 7.828125 -38 C 9.722656 -38.851562 11.800781 -39.28125 14.0625 -39.28125 C 17.78125 -39.28125 20.789062 -38.394531 23.09375 -36.625 C 25.40625 -34.851562 26.5625 -32.316406 26.5625 -29.015625 C 26.5625 -26.929688 26 -25.140625 24.875 -23.640625 C 23.75 -22.148438 22.160156 -21.007812 20.109375 -20.21875 L 20.109375 -19.953125 C 22.296875 -19.359375 24.125 -18.265625 25.59375 -16.671875 C 27.070312 -15.078125 27.8125 -13.007812 27.8125 -10.46875 C 27.8125 -8.101562 27.195312 -6.085938 25.96875 -4.421875 C 24.738281 -2.753906 23.097656 -1.476562 21.046875 -0.59375 C 18.992188 0.289062 16.738281 0.734375 14.28125 0.734375 Z M 14.28125 0.734375 "/></g></g></g><g fill="#022c22" fill-opacity="1"><g transform="translate(138.10008, 250.759193)"><g><path d="M 4.109375 0 L 4.109375 -29.171875 L 10.359375 -29.171875 L 10.890625 -25.3125 L 11.09375 -25.3125 C 12.375 -26.5625 13.78125 -27.640625 15.3125 -28.546875 C 16.84375 -29.453125 18.597656 -29.90625 20.578125 -29.90625 C 23.734375 -29.90625 26.023438 -28.867188 27.453125 -26.796875 C 28.878906 -24.734375 29.59375 -21.863281 29.59375 -18.1875 L 29.59375 0 L 21.9375 0 L 21.9375 -17.25 C 21.9375 -19.5 21.601562 -21.078125 20.9375 -21.984375 C 20.28125 -22.890625 19.238281 -23.34375 17.8125 -23.34375 C 16.632812 -23.34375 15.601562 -23.0625 14.71875 -22.5 C 13.832031 -21.945312 12.832031 -21.132812 11.71875 -20.0625 L 11.71875 0 Z M 4.109375 0 "/></g></g></g><g fill="#022c22" fill-opacity="1"><g transform="translate(170.449957, 250.759193)"><g><path d="M 4.109375 0 L 4.109375 -29.171875 L 10.359375 -29.171875 L 10.890625 -24.015625 L 11.09375 -24.015625 C 12.164062 -25.921875 13.441406 -27.378906 14.921875 -28.390625 C 16.398438 -29.398438 17.882812 -29.90625 19.375 -29.90625 C 20.175781 -29.90625 20.835938 -29.84375 21.359375 -29.71875 C 21.878906 -29.59375 22.363281 -29.445312 22.8125 -29.28125 L 21.46875 -22.65625 C 20.976562 -22.832031 20.5 -22.953125 20.03125 -23.015625 C 19.5625 -23.085938 19.03125 -23.125 18.4375 -23.125 C 17.289062 -23.125 16.09375 -22.695312 14.84375 -21.84375 C 13.59375 -21 12.550781 -19.519531 11.71875 -17.40625 L 11.71875 0 Z M 4.109375 0 "/></g></g></g><g fill="#022c22" fill-opacity="1"><g transform="translate(192.120573, 250.759193)"><g><path d="M 4.265625 0 L 4.265625 -6.203125 L 12.546875 -6.203125 L 12.546875 -30.578125 L 5.578125 -30.578125 L 5.578125 -35.3125 C 7.515625 -35.695312 9.1875 -36.140625 10.59375 -36.640625 C 12 -37.148438 13.3125 -37.785156 14.53125 -38.546875 L 20.21875 -38.546875 L 20.21875 -6.203125 L 27.453125 -6.203125 L 27.453125 0 Z M 4.265625 0 "/></g></g></g><g fill="#022c22" fill-opacity="1"><g transform="translate(221.761556, 250.759193)"><g><path d="M 14.375 0.734375 C 11.976562 0.734375 9.882812 0.125 8.09375 -1.09375 C 6.3125 -2.3125 4.925781 -4.066406 3.9375 -6.359375 C 2.945312 -8.648438 2.453125 -11.375 2.453125 -14.53125 C 2.453125 -17.726562 3.03125 -20.472656 4.1875 -22.765625 C 5.351562 -25.054688 6.875 -26.816406 8.75 -28.046875 C 10.625 -29.285156 12.601562 -29.90625 14.6875 -29.90625 C 16.320312 -29.90625 17.703125 -29.617188 18.828125 -29.046875 C 19.960938 -28.472656 21.050781 -27.695312 22.09375 -26.71875 L 21.78125 -31.3125 L 21.78125 -41.578125 L 29.4375 -41.578125 L 29.4375 0 L 23.234375 0 L 22.609375 -3.015625 L 22.453125 -3.015625 C 21.378906 -1.972656 20.144531 -1.085938 18.75 -0.359375 C 17.363281 0.367188 15.90625 0.734375 14.375 0.734375 Z M 16.359375 -5.578125 C 17.367188 -5.578125 18.316406 -5.8125 19.203125 -6.28125 C 20.085938 -6.75 20.945312 -7.519531 21.78125 -8.59375 L 21.78125 -21.40625 C 20.90625 -22.207031 20.007812 -22.769531 19.09375 -23.09375 C 18.175781 -23.425781 17.265625 -23.59375 16.359375 -23.59375 C 14.722656 -23.59375 13.304688 -22.828125 12.109375 -21.296875 C 10.910156 -19.773438 10.3125 -17.554688 10.3125 -14.640625 C 10.3125 -11.617188 10.84375 -9.351562 11.90625 -7.84375 C 12.96875 -6.332031 14.453125 -5.578125 16.359375 -5.578125 Z M 16.359375 -5.578125 "/></g></g></g><g fill="#022c22" fill-opacity="1"><g transform="translate(254.267706, 250.759193)"><g><path d="M 14.28125 0.734375 C 11.21875 0.734375 8.632812 0.222656 6.53125 -0.796875 C 4.4375 -1.828125 2.710938 -3.109375 1.359375 -4.640625 L 4.953125 -9.484375 C 6.097656 -8.367188 7.378906 -7.425781 8.796875 -6.65625 C 10.222656 -5.894531 11.804688 -5.515625 13.546875 -5.515625 C 15.492188 -5.515625 17.070312 -5.984375 18.28125 -6.921875 C 19.5 -7.859375 20.109375 -9.179688 20.109375 -10.890625 C 20.109375 -12.171875 19.800781 -13.265625 19.1875 -14.171875 C 18.582031 -15.078125 17.515625 -15.78125 15.984375 -16.28125 C 14.460938 -16.78125 12.296875 -17.03125 9.484375 -17.03125 L 9.484375 -22.5625 C 11.835938 -22.5625 13.703125 -22.8125 15.078125 -23.3125 C 16.453125 -23.8125 17.425781 -24.503906 18 -25.390625 C 18.570312 -26.273438 18.859375 -27.289062 18.859375 -28.4375 C 18.859375 -29.96875 18.40625 -31.148438 17.5 -31.984375 C 16.601562 -32.816406 15.335938 -33.25 13.703125 -33.28125 C 12.304688 -33.25 11.023438 -32.925781 9.859375 -32.3125 C 8.703125 -31.707031 7.550781 -30.882812 6.40625 -29.84375 L 2.5 -34.53125 C 4.164062 -35.988281 5.941406 -37.144531 7.828125 -38 C 9.722656 -38.851562 11.800781 -39.28125 14.0625 -39.28125 C 17.78125 -39.28125 20.789062 -38.394531 23.09375 -36.625 C 25.40625 -34.851562 26.5625 -32.316406 26.5625 -29.015625 C 26.5625 -26.929688 26 -25.140625 24.875 -23.640625 C 23.75 -22.148438 22.160156 -21.007812 20.109375 -20.21875 L 20.109375 -19.953125 C 22.296875 -19.359375 24.125 -18.265625 25.59375 -16.671875 C 27.070312 -15.078125 27.8125 -13.007812 27.8125 -10.46875 C 27.8125 -8.101562 27.195312 -6.085938 25.96875 -4.421875 C 24.738281 -2.753906 23.097656 -1.476562 21.046875 -0.59375 C 18.992188 0.289062 16.738281 0.734375 14.28125 0.734375 Z M 14.28125 0.734375 "/></g></g></g><g fill="#022c22" fill-opacity="1"><g transform="translate(283.908682, 250.759193)"><g><path d="M 10.671875 0 L 0.734375 -29.171875 L 8.4375 -29.171875 L 12.703125 -14.640625 C 13.085938 -13.210938 13.476562 -11.75 13.875 -10.25 C 14.28125 -8.757812 14.675781 -7.269531 15.0625 -5.78125 L 15.3125 -5.78125 C 15.695312 -7.269531 16.085938 -8.757812 16.484375 -10.25 C 16.890625 -11.75 17.28125 -13.210938 17.65625 -14.640625 L 21.9375 -29.171875 L 29.28125 -29.171875 L 19.53125 0 Z M 10.671875 0 "/></g></g></g><g fill="#022c22" fill-opacity="1"><g transform="translate(142.323909, 280.769789)"><g><path d="M 1.203125 0 L 1.203125 -9.765625 L 3.875 -9.765625 C 4.875 -9.765625 5.734375 -9.59375 6.453125 -9.25 C 7.171875 -8.90625 7.726562 -8.375 8.125 -7.65625 C 8.519531 -6.9375 8.71875 -6.023438 8.71875 -4.921875 C 8.71875 -3.828125 8.519531 -2.914062 8.125 -2.1875 C 7.738281 -1.457031 7.191406 -0.910156 6.484375 -0.546875 C 5.773438 -0.179688 4.941406 0 3.984375 0 Z M 3.15625 -1.578125 L 3.765625 -1.578125 C 4.679688 -1.578125 5.398438 -1.835938 5.921875 -2.359375 C 6.453125 -2.878906 6.71875 -3.734375 6.71875 -4.921875 C 6.71875 -5.722656 6.597656 -6.363281 6.359375 -6.84375 C 6.117188 -7.320312 5.773438 -7.671875 5.328125 -7.890625 C 4.890625 -8.109375 4.367188 -8.21875 3.765625 -8.21875 L 3.15625 -8.21875 Z M 3.15625 -1.578125 "/></g></g></g><g fill="#022c22" fill-opacity="1"><g transform="translate(154.474756, 280.769789)"><g><path d="M 1.203125 0 L 1.203125 -9.765625 L 7.203125 -9.765625 L 7.203125 -8.140625 L 3.15625 -8.140625 L 3.15625 -5.890625 L 6.59375 -5.890625 L 6.59375 -4.25 L 3.15625 -4.25 L 3.15625 -1.640625 L 7.34375 -1.640625 L 7.34375 0 Z M 1.203125 0 "/></g></g></g><g fill="#022c22" fill-opacity="1"><g transform="translate(165.31807, 280.769789)"><g><path d="M 2.921875 0 L -0.0625 -9.765625 L 1.984375 -9.765625 L 3.28125 -5.015625 C 3.425781 -4.484375 3.554688 -3.960938 3.671875 -3.453125 C 3.796875 -2.941406 3.9375 -2.410156 4.09375 -1.859375 L 4.15625 -1.859375 C 4.3125 -2.410156 4.453125 -2.941406 4.578125 -3.453125 C 4.703125 -3.960938 4.835938 -4.484375 4.984375 -5.015625 L 6.265625 -9.765625 L 8.234375 -9.765625 L 5.234375 0 Z M 2.921875 0 "/></g></g></g><g fill="#022c22" fill-opacity="1"><g transform="translate(176.201, 280.769789)"><g><path d="M 1.203125 0 L 1.203125 -9.765625 L 7.203125 -9.765625 L 7.203125 -8.140625 L 3.15625 -8.140625 L 3.15625 -5.890625 L 6.59375 -5.890625 L 6.59375 -4.25 L 3.15625 -4.25 L 3.15625 -1.640625 L 7.34375 -1.640625 L 7.34375 0 Z M 1.203125 0 "/></g></g></g><g fill="#022c22" fill-opacity="1"><g transform="translate(187.044313, 280.769789)"><g><path d="M 1.203125 0 L 1.203125 -9.765625 L 3.15625 -9.765625 L 3.15625 -1.640625 L 7.109375 -1.640625 L 7.109375 0 Z M 1.203125 0 "/></g></g></g><g fill="#022c22" fill-opacity="1"><g transform="translate(197.385736, 280.769789)"><g><path d="M 5.078125 0.1875 C 4.222656 0.1875 3.46875 -0.0195312 2.8125 -0.4375 C 2.15625 -0.851562 1.640625 -1.441406 1.265625 -2.203125 C 0.898438 -2.960938 0.71875 -3.867188 0.71875 -4.921875 C 0.71875 -5.984375 0.898438 -6.890625 1.265625 -7.640625 C 1.640625 -8.390625 2.15625 -8.960938 2.8125 -9.359375 C 3.46875 -9.753906 4.222656 -9.953125 5.078125 -9.953125 C 5.941406 -9.953125 6.703125 -9.753906 7.359375 -9.359375 C 8.015625 -8.960938 8.523438 -8.390625 8.890625 -7.640625 C 9.265625 -6.890625 9.453125 -5.984375 9.453125 -4.921875 C 9.453125 -3.867188 9.265625 -2.960938 8.890625 -2.203125 C 8.523438 -1.441406 8.015625 -0.851562 7.359375 -0.4375 C 6.703125 -0.0195312 5.941406 0.1875 5.078125 0.1875 Z M 5.078125 -1.5 C 5.804688 -1.5 6.382812 -1.804688 6.8125 -2.421875 C 7.238281 -3.046875 7.453125 -3.878906 7.453125 -4.921875 C 7.453125 -5.972656 7.238281 -6.796875 6.8125 -7.390625 C 6.382812 -7.984375 5.804688 -8.28125 5.078125 -8.28125 C 4.359375 -8.28125 3.78125 -7.984375 3.34375 -7.390625 C 2.914062 -6.796875 2.703125 -5.972656 2.703125 -4.921875 C 2.703125 -3.878906 2.914062 -3.046875 3.34375 -2.421875 C 3.78125 -1.804688 4.359375 -1.5 5.078125 -1.5 Z M 5.078125 -1.5 "/></g></g></g><g fill="#022c22" fill-opacity="1"><g transform="translate(210.276211, 280.769789)"><g><path d="M 1.203125 0 L 1.203125 -9.765625 L 4.40625 -9.765625 C 5.132812 -9.765625 5.785156 -9.671875 6.359375 -9.484375 C 6.929688 -9.296875 7.382812 -8.976562 7.71875 -8.53125 C 8.0625 -8.09375 8.234375 -7.484375 8.234375 -6.703125 C 8.234375 -5.960938 8.0625 -5.351562 7.71875 -4.875 C 7.382812 -4.394531 6.929688 -4.039062 6.359375 -3.8125 C 5.796875 -3.582031 5.164062 -3.46875 4.46875 -3.46875 L 3.15625 -3.46875 L 3.15625 0 Z M 3.15625 -5.015625 L 4.328125 -5.015625 C 5.660156 -5.015625 6.328125 -5.578125 6.328125 -6.703125 C 6.328125 -7.273438 6.148438 -7.671875 5.796875 -7.890625 C 5.453125 -8.109375 4.941406 -8.21875 4.265625 -8.21875 L 3.15625 -8.21875 Z M 3.15625 -5.015625 "/></g></g></g><g fill="#022c22" fill-opacity="1"><g transform="translate(221.806317, 280.769789)"><g><path d="M 1.203125 0 L 1.203125 -9.765625 L 7.203125 -9.765625 L 7.203125 -8.140625 L 3.15625 -8.140625 L 3.15625 -5.890625 L 6.59375 -5.890625 L 6.59375 -4.25 L 3.15625 -4.25 L 3.15625 -1.640625 L 7.34375 -1.640625 L 7.34375 0 Z M 1.203125 0 "/></g></g></g><g fill="#022c22" fill-opacity="1"><g transform="translate(232.64963, 280.769789)"><g><path d="M 3.15625 -8.21875 L 3.15625 -5.234375 L 4.421875 -5.234375 C 5.046875 -5.234375 5.523438 -5.363281 5.859375 -5.625 C 6.191406 -5.894531 6.359375 -6.289062 6.359375 -6.8125 C 6.359375 -7.34375 6.191406 -7.707031 5.859375 -7.90625 C 5.523438 -8.113281 5.046875 -8.21875 4.421875 -8.21875 Z M 8.703125 0 L 6.515625 0 L 4.515625 -3.703125 L 3.15625 -3.703125 L 3.15625 0 L 1.203125 0 L 1.203125 -9.765625 L 4.609375 -9.765625 C 5.296875 -9.765625 5.914062 -9.675781 6.46875 -9.5 C 7.019531 -9.320312 7.457031 -9.015625 7.78125 -8.578125 C 8.113281 -8.148438 8.28125 -7.5625 8.28125 -6.8125 C 8.28125 -6.082031 8.109375 -5.484375 7.765625 -5.015625 C 7.429688 -4.554688 6.984375 -4.21875 6.421875 -4 Z M 8.703125 0 "/></g></g></g></svg>